<svg id="visual" viewBox="0 0 1000 768" width="1000" height="768" xmlns="http://www.w3.org/2000/svg" xmlns:xlink="http://www.w3.org/1999/xlink" version="1.1"><g stroke-width="1" stroke-linejoin="bevel"><path d="M442.4 349.1L324.3 342.1L405.4 435.9Z" fill="#0c2435" stroke="#0c2435"></path><path d="M324.3 342.1L309.3 422.9L405.4 435.9Z" fill="#205a7a" stroke="#205a7a"></path><path d="M324.3 342.1L243.2 365.1L309.3 422.9Z" fill="#081a28" stroke="#081a28"></path><path d="M442.4 349.1L336.3 231.4L324.3 342.1Z" fill="#19435d" stroke="#19435d"></path><path d="M324.3 342.1L260.2 215.4L243.2 365.1Z" fill="#15384f" stroke="#15384f"></path><path d="M442.4 349.1L440.4 225.4L336.3 231.4Z" fill="#277297" stroke="#277297"></path><path d="M243.2 365.1L222.2 454.9L309.3 422.9Z" fill="#297ea6" stroke="#297ea6"></path><path d="M309.3 422.9L336.3 558.6L405.4 435.9Z" fill="#081a28" stroke="#081a28"></path><path d="M563.6 466.9L547.6 301.1L442.4 349.1Z" fill="#0c2435" stroke="#0c2435"></path><path d="M442.4 349.1L547.6 301.1L440.4 225.4Z" fill="#205a7a" stroke="#205a7a"></path><path d="M222.2 454.9L336.3 558.6L309.3 422.9Z" fill="#15384f" stroke="#15384f"></path><path d="M405.4 435.9L563.6 466.9L442.4 349.1Z" fill="#112e42" stroke="#112e42"></path><path d="M320.3 135.7L260.2 215.4L336.3 231.4Z" fill="#297ea6" stroke="#297ea6"></path><path d="M336.3 231.4L260.2 215.4L324.3 342.1Z" fill="#1d4e6b" stroke="#1d4e6b"></path><path d="M86.1 406.9L195.2 510.6L222.2 454.9Z" fill="#277297" stroke="#277297"></path><path d="M463.4 566.6L563.6 466.9L405.4 435.9Z" fill="#00101c" stroke="#00101c"></path><path d="M547.6 301.1L522.6 222.4L440.4 225.4Z" fill="#1d4e6b" stroke="#1d4e6b"></path><path d="M440.4 225.4L320.3 135.7L336.3 231.4Z" fill="#205a7a" stroke="#205a7a"></path><path d="M336.3 558.6L463.4 566.6L405.4 435.9Z" fill="#1d4e6b" stroke="#1d4e6b"></path><path d="M129.1 354.1L222.2 454.9L243.2 365.1Z" fill="#277297" stroke="#277297"></path><path d="M222.2 454.9L195.2 510.6L336.3 558.6Z" fill="#15384f" stroke="#15384f"></path><path d="M406.4 90.7L320.3 135.7L440.4 225.4Z" fill="#277297" stroke="#277297"></path><path d="M146.1 197.4L129.1 354.1L260.2 215.4Z" fill="#19435d" stroke="#19435d"></path><path d="M260.2 215.4L129.1 354.1L243.2 365.1Z" fill="#205a7a" stroke="#205a7a"></path><path d="M463.4 566.6L563.6 551.6L563.6 466.9Z" fill="#1d4e6b" stroke="#1d4e6b"></path><path d="M693.7 466.9L656.7 338.1L563.6 466.9Z" fill="#15384f" stroke="#15384f"></path><path d="M563.6 466.9L656.7 338.1L547.6 301.1Z" fill="#277297" stroke="#277297"></path><path d="M547.6 301.1L641.7 213.4L522.6 222.4Z" fill="#1d4e6b" stroke="#1d4e6b"></path><path d="M336.3 558.6L358.3 658.3L463.4 566.6Z" fill="#112e42" stroke="#112e42"></path><path d="M463.4 566.6L562.6 693.3L563.6 551.6Z" fill="#15384f" stroke="#15384f"></path><path d="M189.2 636.3L358.3 658.3L336.3 558.6Z" fill="#19435d" stroke="#19435d"></path><path d="M518.6 81.7L440.4 225.4L522.6 222.4Z" fill="#112e42" stroke="#112e42"></path><path d="M518.6 81.7L406.4 90.7L440.4 225.4Z" fill="#205a7a" stroke="#205a7a"></path><path d="M310.3 0L236.2 122.7L320.3 135.7Z" fill="#297ea6" stroke="#297ea6"></path><path d="M320.3 135.7L236.2 122.7L260.2 215.4Z" fill="#19435d" stroke="#19435d"></path><path d="M653.7 644.3L626.7 535.6L563.6 551.6Z" fill="#112e42" stroke="#112e42"></path><path d="M563.6 551.6L626.7 535.6L563.6 466.9Z" fill="#19435d" stroke="#19435d"></path><path d="M236.2 122.7L146.1 197.4L260.2 215.4Z" fill="#297ea6" stroke="#297ea6"></path><path d="M129.1 354.1L86.1 406.9L222.2 454.9Z" fill="#081a28" stroke="#081a28"></path><path d="M0 313.1L86.1 406.9L129.1 354.1Z" fill="#246688" stroke="#246688"></path><path d="M358.3 658.3L427.4 674.3L463.4 566.6Z" fill="#112e42" stroke="#112e42"></path><path d="M656.7 338.1L641.7 213.4L547.6 301.1Z" fill="#0c2435" stroke="#0c2435"></path><path d="M641.7 213.4L518.6 81.7L522.6 222.4Z" fill="#15384f" stroke="#15384f"></path><path d="M91.1 536.6L189.2 636.3L195.2 510.6Z" fill="#0c2435" stroke="#0c2435"></path><path d="M195.2 510.6L189.2 636.3L336.3 558.6Z" fill="#00101c" stroke="#00101c"></path><path d="M358.3 658.3L420.4 768L427.4 674.3Z" fill="#112e42" stroke="#112e42"></path><path d="M626.7 535.6L693.7 466.9L563.6 466.9Z" fill="#297ea6" stroke="#297ea6"></path><path d="M656.7 338.1L766.8 311.1L641.7 213.4Z" fill="#246688" stroke="#246688"></path><path d="M86.1 406.9L91.1 536.6L195.2 510.6Z" fill="#081a28" stroke="#081a28"></path><path d="M427.4 674.3L562.6 693.3L463.4 566.6Z" fill="#297ea6" stroke="#297ea6"></path><path d="M807.8 525.6L770.8 471.9L693.7 466.9Z" fill="#081a28" stroke="#081a28"></path><path d="M518.6 81.7L413.4 0L406.4 90.7Z" fill="#1d4e6b" stroke="#1d4e6b"></path><path d="M406.4 90.7L310.3 0L320.3 135.7Z" fill="#1d4e6b" stroke="#1d4e6b"></path><path d="M413.4 0L310.3 0L406.4 90.7Z" fill="#246688" stroke="#246688"></path><path d="M236.2 122.7L83.1 80.7L146.1 197.4Z" fill="#112e42" stroke="#112e42"></path><path d="M562.6 693.3L653.7 644.3L563.6 551.6Z" fill="#15384f" stroke="#15384f"></path><path d="M0 255.4L129.1 354.1L146.1 197.4Z" fill="#1d4e6b" stroke="#1d4e6b"></path><path d="M0 255.4L0 313.1L129.1 354.1Z" fill="#081a28" stroke="#081a28"></path><path d="M86.1 406.9L0 449.9L91.1 536.6Z" fill="#0c2435" stroke="#0c2435"></path><path d="M0 313.1L0 449.9L86.1 406.9Z" fill="#1d4e6b" stroke="#1d4e6b"></path><path d="M91.1 536.6L98.1 656.3L189.2 636.3Z" fill="#277297" stroke="#277297"></path><path d="M770.8 471.9L766.8 311.1L693.7 466.9Z" fill="#246688" stroke="#246688"></path><path d="M693.7 466.9L766.8 311.1L656.7 338.1Z" fill="#0c2435" stroke="#0c2435"></path><path d="M704.7 0L517.6 0L518.6 81.7Z" fill="#112e42" stroke="#112e42"></path><path d="M297.3 768L420.4 768L358.3 658.3Z" fill="#00101c" stroke="#00101c"></path><path d="M427.4 674.3L420.4 768L562.6 693.3Z" fill="#1d4e6b" stroke="#1d4e6b"></path><path d="M310.3 0L251.2 0L236.2 122.7Z" fill="#112e42" stroke="#112e42"></path><path d="M518.6 81.7L517.6 0L413.4 0Z" fill="#205a7a" stroke="#205a7a"></path><path d="M697.7 99.7L518.6 81.7L641.7 213.4Z" fill="#297ea6" stroke="#297ea6"></path><path d="M0 543.6L98.1 656.3L91.1 536.6Z" fill="#0c2435" stroke="#0c2435"></path><path d="M189.2 636.3L297.3 768L358.3 658.3Z" fill="#19435d" stroke="#19435d"></path><path d="M0 129.7L0 255.4L146.1 197.4Z" fill="#081a28" stroke="#081a28"></path><path d="M807.8 525.6L693.7 466.9L626.7 535.6Z" fill="#297ea6" stroke="#297ea6"></path><path d="M240.2 768L297.3 768L189.2 636.3Z" fill="#277297" stroke="#277297"></path><path d="M895.9 258.4L764.8 219.4L766.8 311.1Z" fill="#081a28" stroke="#081a28"></path><path d="M766.8 311.1L764.8 219.4L641.7 213.4Z" fill="#246688" stroke="#246688"></path><path d="M0 449.9L0 543.6L91.1 536.6Z" fill="#00101c" stroke="#00101c"></path><path d="M122.1 768L240.2 768L189.2 636.3Z" fill="#00101c" stroke="#00101c"></path><path d="M764.8 219.4L697.7 99.7L641.7 213.4Z" fill="#297ea6" stroke="#297ea6"></path><path d="M251.2 0L83.1 80.7L236.2 122.7Z" fill="#00101c" stroke="#00101c"></path><path d="M420.4 768L559.6 768L562.6 693.3Z" fill="#205a7a" stroke="#205a7a"></path><path d="M562.6 693.3L696.7 768L653.7 644.3Z" fill="#00101c" stroke="#00101c"></path><path d="M794.8 645.3L807.8 525.6L653.7 644.3Z" fill="#205a7a" stroke="#205a7a"></path><path d="M653.7 644.3L807.8 525.6L626.7 535.6Z" fill="#1d4e6b" stroke="#1d4e6b"></path><path d="M770.8 471.9L852.9 354.1L766.8 311.1Z" fill="#0c2435" stroke="#0c2435"></path><path d="M83.1 80.7L0 129.7L146.1 197.4Z" fill="#0c2435" stroke="#0c2435"></path><path d="M0 678.3L122.1 768L98.1 656.3Z" fill="#277297" stroke="#277297"></path><path d="M98.1 656.3L122.1 768L189.2 636.3Z" fill="#277297" stroke="#277297"></path><path d="M903.9 412.9L852.9 354.1L770.8 471.9Z" fill="#081a28" stroke="#081a28"></path><path d="M792.8 82.7L704.7 0L697.7 99.7Z" fill="#205a7a" stroke="#205a7a"></path><path d="M251.2 0L75.1 0L83.1 80.7Z" fill="#1d4e6b" stroke="#1d4e6b"></path><path d="M83.1 80.7L0 0L0 129.7Z" fill="#1d4e6b" stroke="#1d4e6b"></path><path d="M0 543.6L0 678.3L98.1 656.3Z" fill="#112e42" stroke="#112e42"></path><path d="M749.8 768L794.8 645.3L653.7 644.3Z" fill="#0c2435" stroke="#0c2435"></path><path d="M807.8 525.6L903.9 412.9L770.8 471.9Z" fill="#00101c" stroke="#00101c"></path><path d="M792.8 82.7L697.7 99.7L764.8 219.4Z" fill="#246688" stroke="#246688"></path><path d="M697.7 99.7L704.7 0L518.6 81.7Z" fill="#1d4e6b" stroke="#1d4e6b"></path><path d="M559.6 768L696.7 768L562.6 693.3Z" fill="#205a7a" stroke="#205a7a"></path><path d="M872.9 101.7L792.8 82.7L764.8 219.4Z" fill="#19435d" stroke="#19435d"></path><path d="M876.9 585.6L903.9 412.9L807.8 525.6Z" fill="#15384f" stroke="#15384f"></path><path d="M852.9 354.1L895.9 258.4L766.8 311.1Z" fill="#277297" stroke="#277297"></path><path d="M1000 356.1L895.9 258.4L852.9 354.1Z" fill="#1d4e6b" stroke="#1d4e6b"></path><path d="M75.1 0L0 0L83.1 80.7Z" fill="#0c2435" stroke="#0c2435"></path><path d="M902.9 649.3L876.9 585.6L794.8 645.3Z" fill="#081a28" stroke="#081a28"></path><path d="M794.8 645.3L876.9 585.6L807.8 525.6Z" fill="#205a7a" stroke="#205a7a"></path><path d="M696.7 768L749.8 768L653.7 644.3Z" fill="#112e42" stroke="#112e42"></path><path d="M0 678.3L0 768L122.1 768Z" fill="#277297" stroke="#277297"></path><path d="M895.9 258.4L872.9 101.7L764.8 219.4Z" fill="#112e42" stroke="#112e42"></path><path d="M792.8 82.7L809.8 0L704.7 0Z" fill="#081a28" stroke="#081a28"></path><path d="M854.9 0L809.8 0L792.8 82.7Z" fill="#081a28" stroke="#081a28"></path><path d="M857.9 768L902.9 649.3L794.8 645.3Z" fill="#205a7a" stroke="#205a7a"></path><path d="M1000 475.9L1000 356.1L903.9 412.9Z" fill="#1d4e6b" stroke="#1d4e6b"></path><path d="M872.9 101.7L854.9 0L792.8 82.7Z" fill="#205a7a" stroke="#205a7a"></path><path d="M749.8 768L857.9 768L794.8 645.3Z" fill="#277297" stroke="#277297"></path><path d="M903.9 412.9L1000 356.1L852.9 354.1Z" fill="#0c2435" stroke="#0c2435"></path><path d="M895.9 258.4L1000 147.7L872.9 101.7Z" fill="#00101c" stroke="#00101c"></path><path d="M872.9 101.7L1000 0L854.9 0Z" fill="#205a7a" stroke="#205a7a"></path><path d="M1000 475.9L903.9 412.9L876.9 585.6Z" fill="#15384f" stroke="#15384f"></path><path d="M1000 532.6L1000 475.9L876.9 585.6Z" fill="#081a28" stroke="#081a28"></path><path d="M1000 532.6L876.9 585.6L902.9 649.3Z" fill="#205a7a" stroke="#205a7a"></path><path d="M1000 356.1L1000 255.4L895.9 258.4Z" fill="#19435d" stroke="#19435d"></path><path d="M1000 656.3L1000 532.6L902.9 649.3Z" fill="#1d4e6b" stroke="#1d4e6b"></path><path d="M1000 255.4L1000 147.7L895.9 258.4Z" fill="#081a28" stroke="#081a28"></path><path d="M1000 768L1000 656.3L902.9 649.3Z" fill="#277297" stroke="#277297"></path><path d="M1000 147.7L1000 0L872.9 101.7Z" fill="#0c2435" stroke="#0c2435"></path><path d="M857.9 768L1000 768L902.9 649.3Z" fill="#205a7a" stroke="#205a7a"></path></g></svg>