<svg id="visual" viewBox="0 0 1000 768" width="1000" height="768" xmlns="http://www.w3.org/2000/svg" xmlns:xlink="http://www.w3.org/1999/xlink" version="1.1"><rect x="0" y="0" width="1000" height="768" fill="#f5f5f5"></rect><defs><linearGradient id="grad1_0" x1="23.2%" y1="0%" x2="100%" y2="100%"><stop offset="23.958333333333336%" stop-color="#f5f5f5" stop-opacity="1"></stop><stop offset="76.04166666666666%" stop-color="#f5f5f5" stop-opacity="1"></stop></linearGradient></defs><defs><linearGradient id="grad2_0" x1="0%" y1="0%" x2="76.8%" y2="100%"><stop offset="23.958333333333336%" stop-color="#f5f5f5" stop-opacity="1"></stop><stop offset="76.04166666666666%" stop-color="#f5f5f5" stop-opacity="1"></stop></linearGradient></defs><g transform="translate(1000, 0)"><path d="M0 472.8C-65.5 431.5 -131 390.2 -205.5 355.9C-280 321.7 -363.4 294.6 -409.5 236.4C-455.5 178.3 -464.2 89.1 -472.8 0L0 0Z" fill="#001122"></path></g><g transform="translate(0, 768)"><path d="M0 -472.8C66 -432.4 132.1 -392 206.5 -357.7C280.9 -323.3 363.7 -295 409.5 -236.4C455.3 -177.8 464 -88.9 472.8 0L0 0Z" fill="#001122"></path></g></svg>